<svg xmlns="http://www.w3.org/2000/svg" xmlns:xlink="http://www.w3.org/1999/xlink" version="1.1" id="Layer_1" x="0px" y="0px" style="enable-background:new 0 0 2000 2000;" xml:space="preserve" viewBox="559 731 882.1 537.9">
<style type="text/css">
	.st0{fill:#FFFFFF;}
	.st1{fill:#FEC9DD;}
	.st2{fill:#FFABAB;}
	.st3{fill:#808080;}
	.st4{fill:#AEC9FE;}
	.st5{fill:#6EB6FF;}
	.st6{fill:#666666;}
</style>
<g>
	<g>
		<rect x="878.9" y="808" transform="matrix(0.7071 0.7071 -0.7071 0.7071 949.8315 -434.994)" width="242.2" height="242.2"/>
		<path class="st4" d="M1000,1127l-198-198l198-198l198,198L1000,1127z M816.2,929.1l183.8,183.8l183.8-183.8L1000,745.2    L816.2,929.1z"/>
		
			<rect x="878.9" y="808" transform="matrix(0.7071 0.7071 -0.7071 0.7071 949.8315 -434.994)" class="st5" width="242.2" height="242.2"/>
		<g>
			<path class="st0" d="M922.2,924.2c12.9,0,14.7-7.1,14.7-13.5c0-5.1-0.7-10.2-1.5-15.3s-1.5-10-1.5-15.1     c0-16.7,10.9-23.8,26.4-23.8h3.8v10H961c-10.7,0-14.4,5.8-14.4,15.7c0,4.2,0.5,8.6,1.3,12.9c0.7,4.6,1.3,8.9,1.3,13.8     c0.2,11.6-4.9,17.5-13.1,19.7v0.4c8.2,2,13.3,8.2,13.1,19.8c0,4.9-0.5,9.5-1.3,13.8c-0.7,4.6-1.3,8.7-1.3,13.1     c0,10.2,4.2,15.8,14.4,15.8h3.3v10h-3.8c-15.1,0-26.4-6.6-26.4-24.9c0-4.9,0.7-10,1.5-14.9c0.7-4.9,1.5-9.8,1.5-14.7     c0-5.6-1.8-13.5-14.7-13.5V924.2z"/>
			<path class="st0" d="M1077.8,933.5c-12.9,0-14.7,7.8-14.7,13.5c0,4.9,0.7,9.8,1.5,14.7c0.7,4.9,1.5,10,1.5,14.9     c0,18.4-11.5,24.9-26.4,24.9h-3.8v-10h3.1c10.2-0.2,14.6-5.6,14.6-15.8c0-4.4-0.7-8.6-1.3-13.1c-0.7-4.4-1.5-8.9-1.5-13.8     c0-11.6,5.1-17.8,13.1-19.8v-0.4c-8-2.2-13.1-8-13.1-19.7c0-4.9,0.7-9.3,1.5-13.8c0.5-4.4,1.3-8.7,1.3-12.9     c0-9.8-3.8-15.5-14.4-15.7h-3.3v-10h3.6c15.5,0,26.6,7.1,26.6,23.8c0,5.1-0.7,10-1.5,15.1c-0.7,5.1-1.5,10.2-1.5,15.3     c0,6.4,1.8,13.5,14.7,13.5V933.5z"/>
		</g>
	</g>
</g>
</svg>